<?xml version="1.0" encoding="UTF-8"?>
<!DOCTYPE svg PUBLIC "-//W3C//DTD SVG 1.0//EN" "http://www.w3.org/TR/2001/REC-SVG-20010904/DTD/svg10.dtd">
<!-- Creator: CorelDRAW -->
<svg xmlns="http://www.w3.org/2000/svg" xml:space="preserve" width="0.929cm" height="0.84005cm" version="1.0" shape-rendering="geometricPrecision" text-rendering="geometricPrecision" image-rendering="optimizeQuality" fill-rule="evenodd" clip-rule="evenodd"
viewBox="0 0 95.83 86.66"
 xmlns:xlink="http://www.w3.org/1999/xlink"
 xmlns:xodm="http://www.corel.com/coreldraw/odm/2003">
 <g id="Layer_x0020_1">
  <metadata id="CorelCorpID_0Corel-Layer"/>
  <g id="_2915143420960">
   <g data-name="Path 19">
    <path id="Path_19" fill="#FEFEFE" fill-rule="nonzero" d="M95.83 11.61l-95.52 0 95.52 0zm0 0l0 0 0 0z"/>
   </g>
   <g data-name="Path 20">
    <path id="Path_20" fill="#FEFEFE" fill-rule="nonzero" d="M95.83 47.09l-95.52 0 95.52 0zm0 0l0 0 0 0z"/>
   </g>
   <g data-name="Path 21">
    <path id="Path_21" fill="#FEFEFE" fill-rule="nonzero" d="M95.83 82.56l-95.52 0 95.52 0zm0 0l0 0 0 0z"/>
   </g>
   <path fill="#FEFEFE" d="M10.52 0l74.47 0c5.81,0 10.52,4.71 10.52,10.51l0 0c0,5.8 -4.71,10.51 -10.52,10.51l-74.47 0c-5.81,0 -10.52,-4.71 -10.52,-10.51l0 0c0,-5.8 4.71,-10.51 10.52,-10.51z"/>
   <path fill="#FEFEFE" d="M10.84 65.64l74.47 0c5.81,-0 10.52,4.71 10.52,10.51l0 0c0,5.8 -4.71,10.51 -10.52,10.51l-74.47 0c-5.81,-0 -10.52,-4.71 -10.52,-10.51l-0 0c0,-5.8 4.71,-10.51 10.53,-10.51z"/>
   <path fill="#FEFEFE" d="M10.52 32.52l74.47 0c5.81,0 10.52,4.71 10.52,10.51l0 0c0,5.8 -4.71,10.51 -10.52,10.51l-74.47 0c-5.81,-0 -10.52,-4.71 -10.52,-10.51l0 0c0,-5.8 4.71,-10.51 10.52,-10.51z"/>
  </g>
 </g>
</svg>
