<?xml version="1.0" encoding="UTF-8"?>
<!DOCTYPE svg PUBLIC "-//W3C//DTD SVG 1.0//EN" "http://www.w3.org/TR/2001/REC-SVG-20010904/DTD/svg10.dtd">
<!-- Creator: CorelDRAW -->
<svg xmlns="http://www.w3.org/2000/svg" xml:space="preserve" width="16.5946cm" height="5.43238cm" version="1.0" shape-rendering="geometricPrecision" text-rendering="geometricPrecision" image-rendering="optimizeQuality" fill-rule="evenodd" clip-rule="evenodd"
viewBox="0 0 17880.04 5853.19"
 xmlns:xlink="http://www.w3.org/1999/xlink"
 xmlns:xodm="http://www.corel.com/coreldraw/odm/2003">
 <g id="Layer_x0020_1">
  <metadata id="CorelCorpID_0Corel-Layer"/>
  <path fill="#FEFEFE" d="M5177.48 2300.71l0 -1637.73 2752.5 0 0 5189.91 -1988.47 0 0 -2952.49c0,-158.87 -21.5,-357.66 -124.69,-486.44 -87.43,-109.09 -214.96,-140.39 -350.24,-140.39 -40.67,0 -81.39,2.14 -121.81,7.03l-167.29 20.13zm-4044.41 1464.12c-355.76,-121.95 -697.66,-308.91 -941.68,-601.22 -67.41,-80.76 -126.47,-168.02 -174.75,-261.5l-16.65 -32.28 0 -2206.85 2521.06 0 0 1279.63 -189.68 -53.07c-127.6,-35.73 -259.59,-57.56 -392.33,-57.56 -102.19,0 -208.26,18.05 -292.27,79.93 -54.62,40.24 -86.42,86.25 -86.42,155.06 0,43.53 7.43,87.52 39.38,119.44 54.4,54.41 241.51,119.87 313.86,144.01l1.68 0.56 550.56 197.96c294.22,105.81 610.2,249.55 847.17,457.42 48.88,42.88 94.85,89.1 137.11,138.55 228.53,267.36 312.91,599.11 312.91,945.6 0,452.22 -126.44,870 -439.81,1202.54 -34.32,36.47 -70.28,71.36 -107.84,104.44 -404.68,356.36 -925.11,475.4 -1452.95,475.4l-1762.43 0 0 -2094.29 229.67 146.09c169.72,107.98 342.13,213.42 518.28,310.65 122.01,67.41 249.65,133.83 379.14,185.73 176.35,70.65 371.42,124.33 562.65,124.33 106.81,0 224.04,-17.28 312.83,-81.07 59.83,-42.96 90.11,-91.81 90.11,-166.05 0,-57.96 -16.95,-104.4 -59.16,-144.54 -72.7,-69.14 -219.43,-126.6 -312.51,-159.71l-587.93 -209.21zm2208.15 1824.24c11.58,-9.74 23.07,-19.59 34.42,-29.57 43.23,-38.07 84.58,-78.21 124.06,-120.1 356.63,-378.46 505.83,-855.06 505.83,-1368.89 0,-405.05 -104.27,-791.08 -371.06,-1103.21 -49.79,-58.26 -103.93,-112.73 -161.57,-163.26 -182.54,-160.15 -399.72,-282.97 -620.81,-381.71l-88.49 -39.51 0 -1719.83 2171.36 0 0 5189.91 -1907.54 0 313.8 -263.82z"/>
  <polygon fill="#FEFEFE" points="17880.04,684.77 17195.27,684.77 17195.27,0 17880.04,0 "/>
  <path fill="#FEFEFE" fill-rule="nonzero" d="M8936.88 1936.14c191.56,0 367.02,-82.33 488.76,-213.01l-222 -196.95c-66.23,80.56 -161.11,132.5 -266.76,132.5 -187.94,0 -347.29,-164.71 -347.29,-359.85 0,-193.33 159.35,-358.03 347.29,-358.03 103.87,0 200.53,51.89 264.99,132.45l223.77 -198.72c-121.74,-128.88 -297.2,-211.25 -488.76,-211.25 -358.04,0 -660.59,290.03 -660.59,635.54 0,345.52 302.55,637.32 660.59,637.32zm460.1 1947.79l-297.16 -422.49c159.31,-64.45 261.37,-205.88 261.37,-384.89 0,-248.84 -196.92,-422.52 -467.26,-422.52l-571.09 0 0 1229.9 306.13 0 0 -384.89 150.38 0 270.35 384.89 347.29 0zm-768.02 -950.62l236.33 0c105.6,0 180.81,57.29 180.81,143.24 0,85.93 -75.21,143.22 -180.81,143.22l-236.33 0 0 -286.45zm1.81 2919.88l306.11 0 0 -955.99 372.4 0 0 -273.89 -1052.68 0 0 273.89 374.17 0 0 955.99zm2021.16 -3938.51l-297.16 -422.52c159.35,-64.42 261.37,-205.86 261.37,-384.89 0,-248.85 -196.92,-422.49 -467.26,-422.49l-571.09 0 0 1229.9 306.14 0 0 -384.92 150.37 0 270.35 384.92 347.29 0zm-768 -950.62l236.32 0c105.6,0 180.81,57.3 180.81,143.22 0,85.95 -75.21,143.24 -180.81,143.24l-236.32 0 0 -286.45zm1894.08 -5.39l0 -273.89 -968.51 0 0 1229.9 968.51 0 0 -273.92 -662.4 0 0 -216.6 601.53 0 0 -273.92 -601.53 0 0 -191.56 662.4 0zm1059.81 956.01l343.73 0 -486.95 -1229.9 -343.73 0 -486.95 1229.9 343.73 0 71.63 -179.03 486.94 0 71.6 179.03zm-463.69 -418.94l148.6 -377.73 148.59 377.73 -297.2 0zm1124.31 418.94l306.1 0 0 -956.01 372.37 0 0 -273.89 -1052.65 0 0 273.89 374.18 0 0 956.01zm846.76 0l306.14 0 0 -1229.9 -306.14 0 0 1229.9zm1410.71 -1229.9l-315.07 796.66 -315.08 -796.66 -343.73 0 486.95 1229.9 343.73 0 486.95 -1229.9 -343.74 0zm1439.35 273.89l0 -273.89 -968.5 0 0 1229.9 968.5 0 0 -273.92 -662.4 0 0 -216.6 601.53 0 0 -273.92 -601.53 0 0 -191.56 662.4 0zm-6672.21 1969.29l0 -273.92 -968.54 0 0 1229.9 968.54 0 0 -273.89 -662.4 0 0 -216.63 601.53 0 0 -273.9 -601.53 0 0 -191.55 662.4 0zm667.76 977.47c304.33,0 492.3,-153.96 492.3,-401.03 0,-230.93 -177.23,-309.72 -452.93,-368.78 -182.59,-39.37 -241.69,-64.45 -241.69,-139.62 0,-60.88 55.52,-107.42 153.96,-107.42 114.58,0 238.1,44.74 350.91,130.69l155.76 -218.41c-130.72,-109.22 -291.83,-168.28 -497.69,-168.28 -281.09,0 -470.84,157.54 -470.84,393.86 0,247.04 195.14,318.66 458.29,377.73 179.03,42.96 236.32,59.07 236.32,132.5 0,66.23 -59.07,112.77 -173.64,112.77 -150.37,0 -284.64,-57.29 -404.61,-155.76l-171.88 205.89c148.6,134.26 347.33,205.88 565.74,205.88zm1278.22 0c191.56,0 367.02,-82.37 488.76,-213.06l-221.99 -196.91c-66.23,80.56 -161.12,132.45 -266.77,132.45 -187.97,0 -347.29,-164.7 -347.29,-359.84 0,-193.33 159.31,-358.04 347.29,-358.04 103.84,0 200.54,51.93 264.96,132.5l223.8 -198.73c-121.74,-128.91 -297.2,-211.24 -488.76,-211.24 -358.03,0 -660.59,290 -660.59,635.51 0,345.54 302.56,637.35 660.59,637.35zm1204.83 0c336.58,0 571.1,-230.96 571.1,-560.35l0 -691.05 -304.33 0 0 676.72c0,173.64 -111,297.16 -266.77,297.16 -153.95,0 -264.95,-123.52 -264.95,-297.16l0 -676.72 -306.14 0 0 691.05c0,329.38 236.32,560.35 571.09,560.35zm1761.63 -977.47l0 -273.92 -968.54 0 0 1229.9 968.54 0 0 -273.89 -662.4 0 0 -216.63 601.53 0 0 -273.9 -601.53 0 0 -191.55 662.4 0zm-4994.8 1969.25l0 -273.89 -968.51 0 0 1229.88 968.51 0 0 -273.9 -662.37 0 0 -216.6 601.53 0 0 -273.92 -601.53 0 0 -191.56 662.37 0zm1059.85 955.99l343.7 0 -486.94 -1229.88 -343.71 0 -486.95 1229.88 343.71 0 71.62 -179.01 486.95 0 71.62 179.01zm-463.68 -418.92l148.56 -377.72 148.6 377.72 -297.16 0zm939.87 418.92l306.14 0 0 -712.49 354.45 640.91 354.45 -640.91 0 712.49 306.14 0 0 -1229.88 -306.14 0 -354.45 640.91 -354.45 -640.91 -306.14 0 0 1229.88z"/>
 </g>
</svg>
