<svg xmlns="http://www.w3.org/2000/svg" width="105.496" height="116.884" viewBox="0 0 105.496 116.884">
  <g id="Group_78" data-name="Group 78" transform="translate(-1531.833 -7388.055)">
    <path id="Path_52" data-name="Path 52" d="M769.643,75.764,790.87,96.991v29.926h11.111V37.383H790.87v43.9L769.643,60.052V37.383H758.533v89.535h11.111V75.764Z" transform="translate(835.348 7350.672)" fill="#eeff1b" fill-rule="evenodd"/>
    <path id="Path_53" data-name="Path 53" d="M718.317,239.921v-6.944h2.218a3.472,3.472,0,0,1,0,6.944Zm-1.26-8.211v9.471h3.478a4.735,4.735,0,0,0,0-9.471Zm9.36,0v9.471h6.314v-1.26h-5.055v-3.157h5.055v-1.27h-5.055v-2.517h5.055V231.71Zm15.3,1.267V231.71h-5.046a2.527,2.527,0,0,0,0,5.055h2.2v-.02a1.588,1.588,0,1,1,0,3.177h-4.725v1.26h4.725a2.847,2.847,0,1,0,0-5.694v.008h-2.2a1.216,1.216,0,0,1-.891-.367,1.26,1.26,0,0,1,.891-2.151Zm1.388,8.2h1.26V231.71H743.1v9.471Zm7.646-3.787v1.26h2.778v1.267h-3.089a3.472,3.472,0,1,1,0-6.944,3.439,3.439,0,0,1,3.089,1.889H754.9a4.746,4.746,0,0,0-4.464-3.157,4.735,4.735,0,1,0,0,9.471H754.9v-3.787Zm12.224-5.684v6.314l-6.314-6.314v9.471h1.259v-6.421l6.314,6.421V231.71Zm12.066,7.912a1.833,1.833,0,0,1-1.016.3,1.919,1.919,0,0,1-1.9-1.9,1.75,1.75,0,0,1,1.132-1.734l2.5,2.509a1.9,1.9,0,0,1-.542.7l-.175.127Zm-1.016-6.645a.937.937,0,0,1,.669.271.912.912,0,0,1,.279.668.953.953,0,0,1-1.588.707.945.945,0,0,1,.64-1.646Zm5.995,4.417h-1.888l-1.124.8-1.3-1.278-.931-.921a2.135,2.135,0,0,0,1.047-.793,2.2,2.2,0,0,0,.407-1.289,2.213,2.213,0,0,0-2.208-2.207,2.1,2.1,0,0,0-1.559.648,2.124,2.124,0,0,0-.65,1.559,2.159,2.159,0,0,0,.524,1.435,2.977,2.977,0,0,0-1.473,2.672,3.144,3.144,0,0,0,3.157,3.157,3.106,3.106,0,0,0,1.889-.63l.9-.687,1.317,1.317h1.888l-2.151-2.131Z" transform="translate(856.598 7251.109)" fill="#fff" fill-rule="evenodd"/>
    <path id="Path_54" data-name="Path 54" d="M676.76,257.647l-4.416,9.471h1.385l1.124-2.527h3.814l1.124,2.527h1.4l-4.426-9.471Zm0,2.653,1.345,3.032h-2.692l1.347-3.032Zm6.773,5.559v-6.944h2.218a3.472,3.472,0,0,1,0,6.944Zm-1.259-8.212v9.471h3.477a4.736,4.736,0,0,0,0-9.471Zm15.548,0-2.4,6.081-2.4-6.081h-1.385l3.786,9.471,3.787-9.471Zm2.58,0v9.471h6.314v-1.26h-5.055V262.7h5.055v-1.269h-5.055v-2.517h5.055v-1.268Zm8.981,1.258h1.9a1.89,1.89,0,1,1-1.9,1.9v-1.9Zm5.055,1.9a3.155,3.155,0,0,0-3.157-3.157h-3.157v9.471h1.259v-3.787a3.018,3.018,0,0,0,.271.174l3.137,3.613h1.646l-2.828-3.177a3.142,3.142,0,0,0,2.828-3.138Zm1.3-3.157v1.258H718.9v8.213h1.26v-8.213h3.157v-1.258Zm9.1,9.471h1.26v-9.471h-1.26v9.471Zm10.173-8.2v-1.268h-5.046a2.527,2.527,0,0,0,0,5.055h2.2v-.02a1.589,1.589,0,1,1,0,3.177h-4.725v1.26h4.725a2.847,2.847,0,1,0,0-5.694v.008h-2.2a1.218,1.218,0,0,1-.891-.367,1.26,1.26,0,0,1,.891-2.151Zm1.388,8.2h1.26v-9.471H736.4v9.471Zm8.914-9.471v6.314L739,257.647v9.471h1.26V260.7l6.314,6.421v-9.471Zm7.772,5.685v1.26h2.778v1.267h-3.089a3.472,3.472,0,1,1,0-6.944,3.439,3.439,0,0,1,3.089,1.889h1.375a4.637,4.637,0,0,0-1.7-2.266,4.735,4.735,0,1,0-2.761,8.58h4.464v-3.787Z" transform="translate(879.507 7237.821)" fill="#fff" fill-rule="evenodd"/>
    <path id="Path_55" data-name="Path 55" d="M665.068,37.383l7.855,7.855L647.006,71.156,669,93.145,661.141,101,631.3,71.155Z" transform="translate(900.538 7350.672)" fill="#fff" fill-rule="evenodd"/>
    <path id="Path_56" data-name="Path 56" d="M683.349,90.529l-7.855,7.856,21.989,21.99-25.917,25.917,7.856,7.856,33.773-33.773Z" transform="translate(879.905 7323.443)" fill="#fff" fill-rule="evenodd"/>
  </g>
</svg>
