<?xml version="1.0" encoding="UTF-8"?>
<!DOCTYPE svg PUBLIC "-//W3C//DTD SVG 1.0//EN" "http://www.w3.org/TR/2001/REC-SVG-20010904/DTD/svg10.dtd">
<!-- Creator: CorelDRAW -->
<svg xmlns="http://www.w3.org/2000/svg" xml:space="preserve" width="16.5946cm" height="5.43238cm" version="1.0" shape-rendering="geometricPrecision" text-rendering="geometricPrecision" image-rendering="optimizeQuality" fill-rule="evenodd" clip-rule="evenodd"
viewBox="0 0 18627.68 6097.93"
 xmlns:xlink="http://www.w3.org/1999/xlink"
 xmlns:xodm="http://www.corel.com/coreldraw/odm/2003">
 <g id="Layer_x0020_1">
  <metadata id="CorelCorpID_0Corel-Layer"/>
  <path fill="black" d="M5393.97 2396.91l0 -1706.21 2867.59 0 0 5406.92 -2071.61 0 0 -3075.95c0,-165.51 -22.39,-372.62 -129.91,-506.78 -91.08,-113.65 -223.95,-146.26 -364.89,-146.26 -42.37,0 -84.79,2.23 -126.9,7.32l-174.28 20.97zm-4213.52 1525.34c-370.63,-127.05 -726.83,-321.83 -981.06,-626.36 -70.22,-84.13 -131.76,-175.05 -182.06,-272.43l-17.34 -33.63 0 -2299.13 2626.47 0 0 1333.13 -197.61 -55.28c-132.94,-37.22 -270.45,-59.96 -408.73,-59.96 -106.46,0 -216.97,18.8 -304.49,83.27 -56.9,41.93 -90.04,89.86 -90.04,161.54 0,45.35 7.75,91.18 41.03,124.43 56.68,56.69 251.61,124.88 326.99,150.04l1.75 0.58 573.58 206.24c306.53,110.23 635.71,259.99 882.59,476.54 50.93,44.68 98.82,92.82 142.84,144.34 238.09,278.54 325.99,624.16 325.99,985.14 0,471.13 -131.73,906.38 -458.2,1252.83 -35.75,38 -73.22,74.34 -112.35,108.81 -421.61,371.26 -963.79,495.28 -1513.7,495.28l-1836.12 0 0 -2181.86 239.28 152.2c176.82,112.5 356.43,222.35 539.95,323.64 127.11,70.22 260.09,139.43 394.99,193.5 183.72,73.6 386.95,129.53 586.18,129.53 111.28,0 233.4,-18.01 325.91,-84.46 62.33,-44.75 93.88,-95.65 93.88,-172.99 0,-60.38 -17.66,-108.76 -61.64,-150.59 -75.74,-72.03 -228.6,-131.9 -325.57,-166.39l-612.51 -217.96zm2300.48 1900.52c12.07,-10.15 24.03,-20.41 35.86,-30.8 45.04,-39.66 88.12,-81.48 129.25,-125.13 371.54,-394.28 526.98,-890.82 526.98,-1426.13 0,-421.99 -108.63,-824.16 -386.57,-1149.34 -51.87,-60.69 -108.28,-117.45 -168.32,-170.08 -190.18,-166.85 -416.43,-294.81 -646.77,-397.67l-92.19 -41.16 0 -1791.75 2262.15 0 0 5406.92 -1987.3 0 326.92 -274.85z"/>
  <polygon fill="black" points="18627.68,713.4 17914.28,713.4 17914.28,0 18627.68,0 "/>
  <path fill="black" fill-rule="nonzero" d="M9310.57 2017.09c199.57,0 382.36,-85.77 509.2,-221.92l-231.28 -205.18c-69,83.93 -167.85,138.04 -277.91,138.04 -195.8,0 -361.81,-171.6 -361.81,-374.9 0,-201.41 166.01,-373 361.81,-373 108.21,0 208.91,54.06 276.07,137.99l233.12 -207.03c-126.83,-134.26 -309.62,-220.08 -509.2,-220.08 -373.01,0 -688.21,302.16 -688.21,662.12 0,359.97 315.2,663.97 688.21,663.97zm479.34 2029.24l-309.59 -440.16c165.98,-67.15 272.3,-214.49 272.3,-400.99 0,-259.25 -205.15,-440.18 -486.8,-440.18l-594.97 0 0 1281.33 318.93 0 0 -400.99 156.67 0 281.65 400.99 361.81 0zm-800.13 -990.37l246.21 0c110.02,0 188.37,59.68 188.37,149.23 0,89.52 -78.35,149.2 -188.37,149.2l-246.21 0 0 -298.43zm1.89 3041.97l318.91 0 0 -995.96 387.98 0 0 -285.34 -1096.7 0 0 285.34 389.82 0 0 995.96zm2105.67 -4103.2l-309.59 -440.18c166.01,-67.12 272.3,-214.47 272.3,-400.99 0,-259.26 -205.15,-440.16 -486.8,-440.16l-594.97 0 0 1281.33 318.94 0 0 -401.02 156.66 0 281.65 401.02 361.81 0zm-800.12 -990.37l246.2 0c110.02,0 188.37,59.7 188.37,149.2 0,89.54 -78.35,149.23 -188.37,149.23l-246.2 0 0 -298.43zm1973.28 -5.61l0 -285.34 -1009.01 0 0 1281.33 1009.01 0 0 -285.38 -690.1 0 0 -225.66 626.68 0 0 -285.38 -626.68 0 0 -199.57 690.1 0zm1104.13 995.99l358.11 0 -507.31 -1281.33 -358.11 0 -507.31 1281.33 358.11 0 74.62 -186.52 507.3 0 74.59 186.52zm-483.07 -436.46l154.82 -393.52 154.81 393.52 -309.62 0zm1171.32 436.46l318.9 0 0 -995.99 387.94 0 0 -285.34 -1096.66 0 0 285.34 389.83 0 0 995.99zm882.16 0l318.94 0 0 -1281.33 -318.94 0 0 1281.33zm1469.7 -1281.33l-328.25 829.98 -328.26 -829.98 -358.11 0 507.31 1281.33 358.11 0 507.31 -1281.33 -358.12 0zm1499.54 285.34l0 -285.34 -1009 0 0 1281.33 1009 0 0 -285.38 -690.1 0 0 -225.66 626.68 0 0 -285.38 -626.68 0 0 -199.57 690.1 0zm-6951.2 2051.63l0 -285.38 -1009.04 0 0 1281.33 1009.04 0 0 -285.34 -690.1 0 0 -225.69 626.68 0 0 -285.35 -626.68 0 0 -199.56 690.1 0zm695.68 1018.35c317.05,0 512.89,-160.4 512.89,-417.8 0,-240.59 -184.64,-322.67 -471.87,-384.2 -190.22,-41.02 -251.79,-67.15 -251.79,-145.46 0,-63.42 57.84,-111.91 160.4,-111.91 119.37,0 248.05,46.61 365.58,136.15l162.27 -227.55c-136.18,-113.79 -304.03,-175.31 -518.5,-175.31 -292.84,0 -490.53,164.12 -490.53,410.32 0,257.37 203.3,331.98 477.45,393.52 186.52,44.75 246.2,61.54 246.2,138.04 0,69 -61.54,117.48 -180.9,117.48 -156.66,0 -296.55,-59.68 -421.53,-162.27l-179.06 214.5c154.82,139.88 361.85,214.49 589.4,214.49zm1331.66 0c199.57,0 382.36,-85.82 509.2,-221.97l-231.27 -205.14c-69,83.93 -167.86,137.99 -277.92,137.99 -195.83,0 -361.81,-171.59 -361.81,-374.89 0,-201.41 165.98,-373.01 361.81,-373.01 108.18,0 208.92,54.11 276.04,138.04l233.16 -207.04c-126.83,-134.3 -309.62,-220.07 -509.2,-220.07 -373,0 -688.21,302.13 -688.21,662.08 0,359.99 315.21,664 688.21,664zm1255.21 0c350.65,0 594.98,-240.62 594.98,-583.78l0 -719.95 -317.05 0 0 705.02c0,180.9 -115.64,309.59 -277.92,309.59 -160.39,0 -276.03,-128.69 -276.03,-309.59l0 -705.02 -318.94 0 0 719.95c0,343.15 246.2,583.78 594.97,583.78zm1835.29 -1018.35l0 -285.38 -1009.04 0 0 1281.33 1009.04 0 0 -285.34 -690.1 0 0 -225.69 626.68 0 0 -285.35 -626.68 0 0 -199.56 690.1 0zm-5203.66 2051.59l0 -285.34 -1009.01 0 0 1281.31 1009.01 0 0 -285.35 -690.07 0 0 -225.66 626.68 0 0 -285.38 -626.68 0 0 -199.57 690.07 0zm1104.16 995.96l358.07 0 -507.3 -1281.31 -358.08 0 -507.31 1281.31 358.08 0 74.61 -186.49 507.31 0 74.61 186.49zm-483.06 -436.43l154.77 -393.51 154.82 393.51 -309.59 0zm979.17 436.43l318.94 0 0 -742.29 369.27 667.71 369.27 -667.71 0 742.29 318.94 0 0 -1281.31 -318.94 0 -369.27 667.71 -369.27 -667.71 -318.94 0 0 1281.31z"/>
 </g>
</svg>
