<svg xmlns="http://www.w3.org/2000/svg" width="33.03" height="33.03" viewBox="0 0 33.03 33.03">
  <path id="instagram" d="M17.532,8.769a8.479,8.479,0,1,0,8.479,8.479A8.48,8.48,0,0,0,17.532,8.769Zm0,14.008A5.522,5.522,0,0,1,12,17.248a5.493,5.493,0,1,1,5.53,5.53ZM28.3,8.474a1.991,1.991,0,1,0-1.991,1.991A1.982,1.982,0,0,0,28.3,8.474Zm5.6,1.991c-.147-2.654-.737-5.013-2.654-6.93S26.969,1.028,24.315.88C21.587.733,13.4.733,10.676.88a10.069,10.069,0,0,0-6.93,2.654c-1.917,1.917-2.507,4.276-2.654,6.93-.147,2.728-.147,10.912,0,13.64a10.069,10.069,0,0,0,2.654,6.93,10.069,10.069,0,0,0,6.93,2.654c2.728.148,10.912.148,13.64,0,2.654-.147,5.013-.737,6.93-2.654A10.069,10.069,0,0,0,33.9,24.1C34.047,21.376,34.047,13.193,33.9,10.465ZM30.361,26.98a5.467,5.467,0,0,1-3.1,3.17c-2.212.885-7.373.664-9.732.664-2.433,0-7.594.221-9.732-.664a5.59,5.59,0,0,1-3.17-3.17c-.885-2.138-.664-7.3-.664-9.732,0-2.359-.221-7.52.664-9.732a5.687,5.687,0,0,1,3.17-3.1c2.138-.885,7.3-.664,9.732-.664,2.359,0,7.52-.221,9.732.664a5.556,5.556,0,0,1,3.1,3.1c.885,2.212.663,7.373.663,9.732C31.024,19.681,31.246,24.842,30.361,26.98Z" transform="translate(-0.98 -0.77)" fill="#eeff1b"/>
</svg>
