<svg xmlns="http://www.w3.org/2000/svg" width="47.051" height="33.03" viewBox="0 0 47.051 33.03">
  <path id="youtube" d="M46.565,5.247a5.851,5.851,0,0,0-4.129-4.215C38.738,0,24.115,0,24.115,0S9.406,0,5.708,1.032A5.851,5.851,0,0,0,1.579,5.247C.547,8.86.547,16.6.547,16.6s0,7.655,1.032,11.354a5.737,5.737,0,0,0,4.129,4.129c3.7.946,18.407.946,18.407.946s14.623,0,18.321-.946a5.737,5.737,0,0,0,4.129-4.129C47.6,24.256,47.6,16.6,47.6,16.6S47.6,8.86,46.565,5.247ZM19.3,23.568V9.634L31.513,16.6Z" transform="translate(-0.547)" fill="#eeff1b"/>
</svg>
